<svg width="18" height="19" viewBox="0 0 18 19" fill="none" xmlns="http://www.w3.org/2000/svg">
<path fill-rule="evenodd" clip-rule="evenodd" d="M11.1414 11.3018H11.3391C11.547 11.3018 11.7293 11.1598 11.7842 10.955L12.2336 9.27973C12.2716 9.13798 12.2427 8.98623 12.1554 8.86939C12.0681 8.75254 11.9324 8.68397 11.7885 8.68397H10.8228L10.8071 8.58528C10.7209 8.05009 10.6249 7.56766 10.5171 7.17746C10.4564 6.95783 10.3849 6.73947 10.2959 6.55098C10.9524 5.50362 11.0048 4.13692 10.8861 2.99771C10.8146 2.3112 10.5897 1.77776 10.2639 1.37554C9.94006 0.975616 9.53733 0.730998 9.14676 0.585507C8.94975 0.512122 8.72682 0.468755 8.50418 0.527157C8.26295 0.590436 8.10071 0.751521 7.99896 0.92804C7.90481 1.09139 7.85446 1.27978 7.82154 1.45109C7.78772 1.62709 7.76547 1.82449 7.74574 2.02355C7.7394 2.08758 7.73318 2.15271 7.72686 2.21881C7.66221 2.89583 7.58779 3.67518 7.269 4.42681C7.04025 4.37576 6.71611 4.32818 6.2695 4.31078C6.26297 4.31052 6.25647 4.31041 6.25 4.31043C6.24353 4.31041 6.23702 4.31052 6.2305 4.31078C5.78389 4.32818 5.45975 4.37576 5.231 4.42681C4.91221 3.67518 4.83781 2.89606 4.77316 2.21905L4.77303 2.21766C4.76675 2.15196 4.76057 2.08721 4.75426 2.02355C4.73453 1.82449 4.71228 1.62709 4.67846 1.45109C4.64554 1.27978 4.59519 1.09139 4.50104 0.92804C4.39929 0.751521 4.23705 0.590436 3.99582 0.527157C3.77318 0.468755 3.55024 0.512122 3.35324 0.585507C2.96267 0.730998 2.55994 0.975617 2.23606 1.37554C1.91031 1.77776 1.68542 2.3112 1.61388 2.99771C1.49516 4.13692 1.54761 5.50362 2.20408 6.55098C2.11505 6.73947 2.04362 6.95783 1.98293 7.17746C1.8751 7.56766 1.77909 8.05009 1.69289 8.58528L1.6772 8.68397H0.711542C0.567605 8.68397 0.431909 8.75254 0.344602 8.86939C0.257296 8.98623 0.228376 9.13798 0.266399 9.27973L0.715771 10.955C0.770704 11.1598 0.95297 11.3018 1.16091 11.3018H1.35864C1.32679 11.6293 1.29679 11.9601 1.26853 12.2898C1.13859 13.8064 1.04451 15.8033 0.979875 17.1751C0.952426 17.7577 0.930289 18.2276 0.912973 18.5H1.8379C1.85728 18.1922 1.88104 17.6909 1.90981 17.0839C1.9747 15.7146 2.06509 13.8077 2.1881 12.372C2.21884 12.0132 2.25155 11.6546 2.28631 11.3018H4.66925C4.87658 11.3018 5.05846 11.1606 5.11395 10.9566L5.33339 10.15H6.24812L6.25 10.15L6.25187 10.15H7.16661L7.38605 10.9566C7.44154 11.1606 7.62342 11.3018 7.83075 11.3018H10.2137C10.2484 11.6546 10.2812 12.0132 10.3119 12.372C10.3244 12.5184 10.3367 12.6697 10.3485 12.8248C10.5564 12.4497 10.8641 12.1421 11.1974 11.902C11.1794 11.7013 11.1607 11.5009 11.1414 11.3018ZM3.72613 1.45246C3.71095 1.45661 3.69223 1.46253 3.6696 1.47096C3.39956 1.57155 3.14612 1.73084 2.94742 1.97619C2.75058 2.21923 2.58648 2.57243 2.53177 3.09744C2.43138 4.06077 2.48468 5.02762 2.83326 5.76983C2.86644 5.73668 2.90006 5.70348 2.93374 5.67066C3.13165 5.47779 3.37403 5.25559 3.55057 5.14434C3.56009 5.13834 3.56982 5.13269 3.57974 5.12742C3.82219 4.99846 4.12407 4.85959 4.36426 4.75321C3.99961 3.86615 3.91605 2.97224 3.85525 2.32185L3.72613 1.45246ZM4.75024 5.60965C4.51787 5.7123 4.23966 5.84024 4.02341 5.95422C3.93706 6.01236 3.76752 6.16103 3.57106 6.35249C3.37494 6.54362 3.19151 6.73822 3.10481 6.84006C3.06048 6.89213 2.97241 7.06758 2.87132 7.43342C2.78012 7.76344 2.69361 8.18816 2.61254 8.68397H5.12117C5.26483 8.68397 5.4003 8.75228 5.48764 8.86876C5.56055 8.96601 5.59297 9.08758 5.57986 9.20749H6.24812L6.25 9.20749L6.25187 9.20749H6.92014C6.90703 9.08758 6.93945 8.96601 7.01236 8.86876C7.0997 8.75228 7.23517 8.68397 7.37883 8.68397H9.88746C9.80639 8.18816 9.71988 7.76344 9.62868 7.43342C9.52759 7.06758 9.43952 6.89213 9.39519 6.84006C9.30849 6.73822 9.12506 6.54362 8.92894 6.35249C8.73248 6.16103 8.56294 6.01235 8.47659 5.95422L7.29954 5.41498C7.27569 5.40429 6.98941 5.28359 6.25 5.25325C5.51059 5.28359 5.2243 5.40429 5.20046 5.41498C5.12321 5.44927 5.04551 5.48246 4.96781 5.51566C4.89517 5.54669 4.82251 5.57773 4.75024 5.60965ZM8.13574 4.75321C8.37593 4.85959 8.67781 4.99846 8.92026 5.12742C8.93018 5.13269 8.93991 5.13834 8.94943 5.14434C9.12597 5.25559 9.36835 5.47779 9.56626 5.67066C9.59994 5.70348 9.63356 5.73668 9.66674 5.76983C10.0153 5.02762 10.0686 4.06077 9.96823 3.09744C9.91352 2.57243 9.74942 2.21923 9.55258 1.97619C9.35388 1.73084 9.10044 1.57155 8.8304 1.47096C8.80777 1.46253 8.78905 1.45661 8.77387 1.45246C8.76011 1.48996 8.7437 1.54744 8.72735 1.63255C8.70249 1.76194 8.68365 1.92142 8.66413 2.11843C8.65778 2.18247 8.6515 2.24966 8.64495 2.31967L8.64481 2.32118C8.58401 2.97157 8.50039 3.86615 8.13574 4.75321Z" fill="black"/>
<path d="M6.15592 11.8776C6.04051 11.8776 5.88478 11.9103 5.75709 12.038C5.63354 12.1614 5.60011 12.3104 5.59285 12.4069C5.57994 12.5787 5.6373 12.7409 5.66928 12.8234C5.7073 12.9216 5.75358 13.0134 5.78846 13.0782V14.2265C5.68369 14.2017 5.59597 14.1711 5.52584 14.1415C5.4474 14.1084 5.39061 14.0766 5.35651 14.0555C5.33948 14.0449 5.32822 14.0371 5.32286 14.0333L5.31995 14.0312C5.12034 13.8741 4.83348 13.9095 4.67649 14.1119C4.5182 14.3159 4.55185 14.6123 4.75165 14.7739L4.753 14.775L4.75451 14.7762L4.75805 14.779L4.76715 14.786C4.77411 14.7913 4.78286 14.7978 4.79339 14.8054C4.81444 14.8204 4.84265 14.8396 4.8779 14.8614C4.94835 14.905 5.04731 14.9595 5.17369 15.0128C5.42717 15.1196 5.78979 15.221 6.25 15.221C6.71021 15.221 7.07283 15.1196 7.32631 15.0128C7.45269 14.9595 7.55165 14.905 7.6221 14.8614C7.65735 14.8396 7.68556 14.8204 7.70661 14.8054C7.71714 14.7978 7.72589 14.7913 7.73285 14.786L7.74195 14.779L7.74549 14.7762L7.747 14.775L7.74803 14.7742C7.94783 14.6125 7.9818 14.3159 7.82351 14.1119C7.66652 13.9095 7.37967 13.8741 7.18006 14.0312L7.17296 14.0341L7.17633 14.0342C7.17056 14.0382 7.15936 14.0457 7.14349 14.0555C7.10939 14.0766 7.05259 14.1084 6.97416 14.1415C6.90402 14.1711 6.81631 14.2017 6.71154 14.2265V13.0782C6.74642 13.0134 6.7927 12.9216 6.83072 12.8234C6.8627 12.7409 6.92006 12.5787 6.90714 12.4069C6.89989 12.3104 6.86646 12.1614 6.74291 12.038C6.61521 11.9103 6.45949 11.8776 6.34408 11.8776H6.15592Z" fill="black"/>
<path fill-rule="evenodd" clip-rule="evenodd" d="M13.1958 12.0358C13.7571 11.9187 14.3684 11.8889 14.9572 11.9479C15.5441 12.0067 16.1031 12.1533 16.5598 12.3834C17.0084 12.6094 17.3926 12.9349 17.5615 13.3627C17.743 13.8224 17.6319 14.287 17.3255 14.6597C17.146 14.878 16.9051 15.0609 16.6273 15.2092C16.9051 15.3576 17.146 15.5404 17.3255 15.7588C17.6319 16.1315 17.743 16.5961 17.5615 17.0557C17.3926 17.4835 17.0084 17.809 16.5598 18.0351C16.1031 18.2651 15.5441 18.4117 14.9572 18.4705C14.3684 18.5295 13.7571 18.4997 13.1958 18.3826C12.6387 18.2664 12.1277 18.0632 11.745 17.7747C11.3628 17.4865 11.0791 17.0855 11.0791 16.6046C11.0791 16.3285 11.3098 16.1046 11.5943 16.1046C11.8789 16.1046 12.1096 16.3285 12.1096 16.6046C12.1096 16.6757 12.1507 16.8142 12.3772 16.985C12.6032 17.1554 12.9573 17.31 13.4124 17.405C13.8633 17.499 14.3656 17.5245 14.8514 17.4758C15.339 17.427 15.767 17.3078 16.085 17.1475C16.4111 16.9833 16.5544 16.8115 16.5993 16.698C16.6315 16.6162 16.6329 16.5197 16.52 16.3825C16.3921 16.2269 16.1352 16.0519 15.7338 15.9168C15.3395 15.784 14.862 15.7092 14.364 15.7092C14.0794 15.7092 13.8487 15.4854 13.8487 15.2092C13.8487 14.9331 14.0794 14.7092 14.364 14.7092C14.862 14.7092 15.3395 14.6344 15.7338 14.5017C16.1352 14.3666 16.3921 14.1916 16.52 14.036C16.6329 13.8987 16.6315 13.8022 16.5993 13.7205C16.5544 13.6069 16.4111 13.4352 16.085 13.2709C15.767 13.1107 15.339 12.9915 14.8514 12.9426C14.3656 12.8939 13.8633 12.9194 13.4124 13.0135C12.9573 13.1085 12.6032 13.263 12.3772 13.4334C12.1507 13.6042 12.1096 13.7428 12.1096 13.8138C12.1096 14.09 11.8789 14.3138 11.5943 14.3138C11.3098 14.3138 11.0791 14.09 11.0791 13.8138C11.0791 13.333 11.3628 12.9319 11.745 12.6438C12.1277 12.3552 12.6387 12.1521 13.1958 12.0358Z" fill="black"/>
</svg>
